# xmcd
#
# Track frame offsets:
#	150
#	12901
#	29171
#	45114
#	66492
#	84637
#	102786
#	119576
#	133668
#	151262
#	164194
#	181042
#	198401
#
# Disc length: 2875 seconds
#
# Revision: 1
# Processed by: cddbd v1.5.2PL0 Copyright (c) Steve Scherf et al.
# Submitted via: audiograbber 1.83.01
#
DISCID=b00b390d
DTITLE=Phantom Blues Band - Footprints
DYEAR=2007
DGENRE=Blues
TTITLE0=Look At Granny Run
TTITLE1=See See Baby
TTITLE2=Leave Home Girl
TTITLE3=Cottage For Sale
TTITLE4=Fried Chicken
TTITLE5=Barnyard Blues
TTITLE6=Your Heartaches Are Over
TTITLE7=My Wife Can't Cook
TTITLE8=When Malindy Sings
TTITLE9=Chills And Fever
TTITLE10=A Very Blue Day
TTITLE11=A Fool For You
TTITLE12=When The Music Changes
EXTD=
EXTT0=
EXTT1=
EXTT2=
EXTT3=
EXTT4=
EXTT5=
EXTT6=
EXTT7=
EXTT8=
EXTT9=
EXTT10=
EXTT11=
EXTT12=
PLAYORDER=
